PathFileType	4	(X/Y/Z)	/home/alexbeat/data/kuopio-gait-dataset/01/mocap/calib_static_markers.trc
DataRate	CameraRate	NumFrames	NumMarkers	Units	OrigDataRate	OrigDataStartFrame	OrigNumFrames
100.000000	100.000000	4	70	mm	100.000000	26	211
Frame#	Time	Pelvis1			Pelvis2			Pelvis3			Pelvis4			Torso1			Torso2			Torso3			Torso4			RFemur1			RFemur2			RFemur3			RFemur4			LFemur1			LFemur2			LFemur3			LFemur4			RTibia1			RTibia2			RTibia3			RTibia4			LTibia1			LTibia2			LTibia3			LTibia4			LFoot1			LFoot2			LFoot3			RFoot1			RFoot2			RFoot3			*30			*31			*32			*33			*34			*35			*36			*37			*38			Pelvis_RFemur_score			Pelvis_LFemur_score			RFemur_RTibia_score			RFemur_RTibia_sara			LFemur_LTibia_score			LFemur_LTibia_sara			RKnee			LKnee			RTibia_RFoot_score			LTibia_LFoot_score			USERMO0			USERMO1			USERMO2			USERMO3			USERMO4			USERMO5			USERMO6			USERMO7			USERMO8			USERMO9			USERMO10			USERMO11			USERMO12			USERMO13			USERMO14			USERMO15			USERMO16			USERMO17			USERMO18			USERMO19			USERMO20			
		X1	Y1	Z1	X2	Y2	Z2	X3	Y3	Z3	X4	Y4	Z4	X5	Y5	Z5	X6	Y6	Z6	X7	Y7	Z7	X8	Y8	Z8	X9	Y9	Z9	X10	Y10	Z10	X11	Y11	Z11	X12	Y12	Z12	X13	Y13	Z13	X14	Y14	Z14	X15	Y15	Z15	X16	Y16	Z16	X17	Y17	Z17	X18	Y18	Z18	X19	Y19	Z19	X20	Y20	Z20	X21	Y21	Z21	X22	Y22	Z22	X23	Y23	Z23	X24	Y24	Z24	X25	Y25	Z25	X26	Y26	Z26	X27	Y27	Z27	X28	Y28	Z28	X29	Y29	Z29	X30	Y30	Z30	X31	Y31	Z31	X32	Y32	Z32	X33	Y33	Z33	X34	Y34	Z34	X35	Y35	Z35	X36	Y36	Z36	X37	Y37	Z37	X38	Y38	Z38	X39	Y39	Z39	X40	Y40	Z40	X41	Y41	Z41	X42	Y42	Z42	X43	Y43	Z43	X44	Y44	Z44	X45	Y45	Z45	X46	Y46	Z46	X47	Y47	Z47	X48	Y48	Z48	X49	Y49	Z49	X50	Y50	Z50	X51	Y51	Z51	X52	Y52	Z52	X53	Y53	Z53	X54	Y54	Z54	X55	Y55	Z55	X56	Y56	Z56	X57	Y57	Z57	X58	Y58	Z58	X59	Y59	Z59	X60	Y60	Z60	X61	Y61	Z61	X62	Y62	Z62	X63	Y63	Z63	X64	Y64	Z64	X65	Y65	Z65	X66	Y66	Z66	X67	Y67	Z67	X68	Y68	Z68	X69	Y69	Z69	X70	Y70	Z70	

27	0.26	343.3959045410157	1027.461547851562	-306.9345703125	345.9667968750001	1030.247314453125	-226.2042388916016	314.2454528808594	916.1113891601562	-228.17724609375	313.1468811035157	916.7345581054688	-297.9361267089844	500.5295410156251	1422.303955078125	-262.4655761718749	445.8213195800782	1440.0380859375	-91.63678741455075	439.7662353515626	1465.041870117188	-435.9734191894531	367.9277954101563	1491.22705078125	-254.1601104736328	397.1585998535157	647.4207153320312	-91.37532806396482	393.3856201171876	545.202880859375	-101.6130142211914	421.7300415039062	592.397216796875	-89.94598388671872	458.8892822265626	591.652587890625	-85.28168487548825	420.9230346679689	668.8558349609375	-434.539306640625	482.2153625488282	632.3590698242188	-433.8189392089843	421.8557128906251	563.2009887695312	-423.5861511230469	440.2212219238282	634.1834106445312	-434.6538391113281	376.8006896972656	363.6370849609375	-93.21958923339841	395.8578491210938	419.2139892578125	-97.28045654296872	391.7353820800781	317.7099609375	-91.59118652343747	338.4139709472656	366.4544677734375	-109.7646713256836	363.0438842773438	372.5104675292969	-426.583984375	404.7723999023438	350.3924865722656	-432.2691650390625	412.5181884765625	285.2744750976562	-424.09716796875	429.7084045410156	394.6829833984375	-424.8714904785156	320.40087890625	28.1402893066406	-335.2948608398438	555.287841796875	23.28438949584957	-377.7478637695311	505.9526062011719	23.1921520233154	-421.9374084472656	331.4713439941406	26.44961738586424	-179.6072692871094	561.9540405273438	22.275032043457	-118.1872787475586	505.9526672363281	21.00589942932126	-76.24893951416013	-1841.693237304688	615.0483398437501	-1498.1318359375	-1909.343139648438	704.5392456054689	-1584.279541015625	nan	nan	nan	-1821.193359375	658.2395019531251	-1628.128173828125	nan	nan	nan	-1802.710693359375	662.8720703125001	-1627.721557617188	nan	nan	nan	nan	nan	nan	nan	nan	nan	451.9570312500001	904.1926879882812	-140.1148376464844	456.5423278808594	892.3434448242188	-375.6727905273438	416.6983337402344	461.2334289550781	-145.5458221435547	431.5765991210939	466.7473754882812	-244.2789611816406	432.4449462890625	458.51025390625	-364.5029296875	436.4221496582031	461.4283447265625	-264.6246948242188	416.697998046875	461.2330017089844	-145.5460052490234	432.4450073242188	458.510009765625	-364.5029907226562	357.8287963867188	8.387307167053201	-221.8561553955078	337.4943542480469	18.59410858154295	-373.1638793945312	-1.481509685516357	-0.7362740039825438	0.8922795057296752	0.4416677951812745	0.6214697957038879	-0.4307172298431396	-0.1000000014901161	0.1000000014901161	-0.1000000014901161	-0.02917396463453778	-1.386010527610779	0.0004202415875624847	0.460547149181366	0.02487227693200108	-0.3783267438411713	-0.1000000014901161	0.1000000014901161	-0.1000000014901161	-1.39989709854126	-0.6350148916244506	1.075059413909912	0.3934445083141327	0.3360501825809479	-0.4276776313781738	-0.1000000014901161	0.1000000014901161	-0.1000000014901161	-2.506154537200928	-1.904267430305481	0.07354887574911102	0.3345390856266022	0.991366446018219	-0.2537350058555603	-0.1000000014901161	0.1000000014901161	-0.1000000014901161	0.206072673201561	-2.237913608551025	-2.462693691253662	0.4041273891925812	0.5949917435646057	-0.09439439326524732	-0.1000000014901161	0.1000000014901161	-0.1000000014901161	-2.469523429870605	-0.02863052673637852	1.882230281829834	0.4664593636989594	0.02324351854622361	-0.1246811673045158	-0.1000000014901161	0.1000000014901161	-0.1000000014901161	0.336621165275574	2.315623044967651	-2.46406626701355	0.3880691528320312	0.3668659031391144	-0.09405706822872159	-0.1000000014901161	0.1000000014901161	-0.1000000014901161	
28	0.27	343.4003601074219	1027.450439453125	-306.9596862792969	345.9762573242189	1030.243896484375	-226.2020721435547	314.2633056640626	916.0947875976562	-228.1921844482422	313.1806640625001	916.70556640625	-297.9379577636719	500.497528076172	1422.267700195312	-262.4536743164061	445.8399047851563	1440.00537109375	-91.62340545654294	439.746063232422	1465.020629882812	-435.9497985839844	367.9471435546876	1491.214965820312	-254.1349792480469	397.1587524414062	647.4058227539062	-91.37288665771482	393.3987731933594	545.1792602539062	-101.6196060180664	421.7254333496094	592.4046020507812	-89.92220306396482	458.9028930664062	591.632080078125	-85.29576873779294	420.9183349609376	668.8419189453125	-434.5382690429688	482.2230529785157	632.3670043945312	-433.8147888183593	421.8453063964844	563.1988525390625	-423.5512390136719	440.2232971191407	634.19677734375	-434.6544799804688	376.80712890625	363.6348571777344	-93.19589233398435	395.8509521484375	419.1988220214844	-97.27609252929685	391.666259765625	317.6680603027344	-91.70450592041013	338.42919921875	366.4326477050781	-109.7484741210938	363.0593566894531	372.5003051757812	-426.59814453125	404.7542724609375	350.3939208984375	-432.2936096191406	412.4947814941406	285.2427978515625	-424.0827026367188	429.6838684082031	394.6598510742188	-424.8640441894531	320.3878479003906	28.13039970397947	-335.2911682128906	555.2903442382812	23.25874710083005	-377.7502441406249	505.9408264160156	23.17446899414059	-421.9419555664061	331.4630432128906	26.44690513610838	-179.5934906005859	561.9412841796875	22.25613594055173	-118.1954650878906	505.9502868652344	21.00727844238278	-76.24581146240232	-1841.6767578125	615.0838623046876	-1498.182250976562	-1909.3408203125	704.5167236328126	-1584.303833007812	nan	nan	nan	-1821.225463867188	658.2463989257814	-1628.115478515625	nan	nan	nan	-1802.652954101562	662.8395385742189	-1627.231811523438	nan	nan	nan	nan	nan	nan	nan	nan	nan	451.9501342773439	904.1986694335938	-140.1018371582031	456.5625610351562	892.3547973632812	-375.7103881835938	416.6934509277344	461.2372131347656	-145.5272369384766	431.5195922851562	466.803955078125	-244.2652587890625	432.43896484375	458.5146179199219	-364.4721069335938	436.4042663574219	461.4535827636719	-264.5940246582031	416.6929931640625	461.2369995117188	-145.5269927978516	432.4389953613281	458.5150146484375	-364.4719848632812	357.6868896484375	8.435882568359354	-222.0373840332031	337.4518127441406	18.58922958374021	-373.1602783203125	-1.481751799583435	-0.7361044287681578	0.8925137519836425	0.4416665732860566	0.6214714646339417	-0.4307063519954681	-0.1000000014901161	0.1000000014901161	-0.1000000014901161	-0.0291586499661208	-1.385985374450684	0.0002932533679995668	0.460539698600769	0.02485453896224496	-0.3783278167247772	-0.1000000014901161	0.1000000014901161	-0.1000000014901161	-1.400213956832886	-0.6351011991500853	1.074777483940125	0.3934299945831299	0.3360355496406555	-0.4276833832263947	-0.1000000014901161	0.1000000014901161	-0.1000000014901161	-2.506058931350708	-1.904571890830994	0.07351797819137558	0.334550976753235	0.9913532137870789	-0.253745824098587	-0.1000000014901161	0.1000000014901161	-0.1000000014901161	0.2059991210699081	-2.237699270248413	-2.462672472000122	0.4041325747966766	0.5949775576591492	-0.09439108520746228	-0.1000000014901161	0.1000000014901161	-0.1000000014901161	-2.469561100006104	-0.0281709916889666	1.882420659065247	0.4664515554904938	0.02323677390813825	-0.124678261578083	-0.1000000014901161	0.1000000014901161	-0.1000000014901161	0.3358153700828556	2.317530393600464	-2.463795900344849	0.3880592584609985	0.3668365776538849	-0.09408572316169736	-0.1000000014901161	0.1000000014901161	-0.1000000014901161	
29	0.28	343.4184570312501	1027.4697265625	-306.9439392089844	345.9974975585939	1030.258178710938	-226.2036895751953	314.2809143066407	916.1123046875	-228.1863861083984	313.1667785644532	916.7461547851562	-297.9274291992188	500.5018005371095	1422.237548828125	-262.4214477539061	445.8476562500001	1440.014038085938	-91.60534667968747	439.7438964843751	1465.011962890625	-435.9325256347656	367.9591674804689	1491.227905273438	-254.1067352294922	397.1776123046876	647.4193115234375	-91.3703918457031	393.4055480957032	545.2108154296875	-101.5967025756836	421.7218627929689	592.4412231445312	-89.89878082275388	458.9057617187501	591.6366577148438	-85.31744384765622	420.9509582519532	668.8626708984375	-434.5452880859375	482.2496643066407	632.3341674804688	-433.7861633300781	421.8774108886719	563.1998291015625	-423.5501403808594	440.2497253417969	634.20068359375	-434.6562194824219	376.7984619140625	363.6430969238281	-93.19730377197263	395.8513793945312	419.2199096679688	-97.27406311035153	391.688232421875	317.696533203125	-91.64379882812497	338.4189453125	366.4613952636719	-109.7561492919922	363.0703125	372.5058898925781	-426.5846252441406	404.752197265625	350.4034423828125	-432.2754821777344	412.5075073242188	285.2572326660156	-424.0879821777344	429.6757202148438	394.6590270996094	-424.8545227050781	320.3933410644531	28.14803314208982	-335.2872314453125	555.289306640625	23.28167724609371	-377.7578430175781	505.9519348144531	23.19684410095212	-421.9432067871093	331.4894714355469	26.44981002807615	-179.6196441650391	561.9383544921875	22.26657104492184	-118.1936950683594	505.9667358398438	21.02429199218747	-76.24802398681638	-1841.68408203125	615.2500610351564	-1498.212036132812	-1909.334106445312	704.5307006835939	-1584.309204101562	673.3722534179686	994.6000366210938	3557.49609375	-1821.193969726562	658.2483520507814	-1628.125732421875	669.4194946289061	971.4937744140625	3553.081787109375	nan	nan	nan	nan	nan	nan	nan	nan	nan	nan	nan	nan	451.9807128906251	904.1975708007812	-140.1448364257812	456.5704956054689	892.3597412109375	-375.7286987304688	416.6837463378906	461.2436218261719	-145.5203094482422	431.5150146484376	466.77685546875	-244.2594451904297	432.4247131347656	458.5169677734375	-364.4547119140625	436.3718566894531	461.4526062011719	-264.5757751464844	416.6839904785156	461.2439880371094	-145.5200042724609	432.4249877929688	458.5169982910156	-364.4549865722656	357.7505493164062	8.411326408386209	-221.9517822265625	337.4750061035156	18.59488868713377	-373.1766662597656	-1.482112526893616	-0.7362906336784362	0.8921019434928893	0.4416950643062593	0.6214696764945984	-0.4307006895542145	-0.1000000014901161	0.1000000014901161	-0.1000000014901161	-0.02913375385105618	-1.385954022407532	0.0003016052069142443	0.4605448842048645	0.02487551979720589	-0.3783294558525084	-0.1000000014901161	0.1000000014901161	-0.1000000014901161	-1.399997711181641	-0.6351670622825621	1.07485294342041	0.3934346735477448	0.3360419571399689	-0.4276756942272186	-0.1000000014901161	0.1000000014901161	-0.1000000014901161	-2.506046772003174	-1.904215455055237	0.0737276673316954	0.3345677554607391	0.991374135017395	-0.2537377774715424	-0.1000000014901161	0.1000000014901161	-0.1000000014901161	0.205276221036911	-2.23783016204834	-2.462344408035278	0.404137909412384	0.5950008630752563	-0.09437822550535199	-0.1000000014901161	0.1000000014901161	-0.1000000014901161	-2.469772338867188	-0.02802145853638634	1.882338881492615	0.4664648771286011	0.02324689179658887	-0.1246871277689934	-0.1000000014901161	0.1000000014901161	-0.1000000014901161	0.336440443992615	2.316596508026123	-2.463900566101074	0.3880579471588135	0.366861492395401	-0.0940655320882797	-0.1000000014901161	0.1000000014901161	-0.1000000014901161	
30	0.29	343.4524841308594	1027.47607421875	-306.9244689941406	346.0212707519532	1030.260986328125	-226.2023620605469	314.2818603515626	916.1248168945312	-228.1614837646484	313.1766967773439	916.7572631835938	-297.9126586914062	500.4966735839845	1422.215087890625	-262.4310607910156	445.873016357422	1439.994018554688	-91.60457611083982	439.7434997558595	1464.998657226562	-435.9232177734375	367.9868164062501	1491.22412109375	-254.0812072753906	397.1972351074219	647.4277954101562	-91.33278656005857	393.4183654785157	545.2042846679688	-101.5663528442383	421.7626342773439	592.4254150390625	-89.91718292236325	458.9344177246094	591.6282958984375	-85.29488372802732	420.9830627441407	668.8649291992188	-434.5386352539062	482.2859802246094	632.3593139648438	-433.8020324707031	421.8777160644532	563.1996459960938	-423.54345703125	440.2876892089844	634.1992797851562	-434.6497802734375	376.8089599609375	363.6223449707031	-93.21644592285153	395.8628845214844	419.2178955078125	-97.26647186279294	391.7305603027344	317.7120971679688	-91.59092712402341	338.4259948730469	366.4634399414062	-109.7350692749023	363.0543518066406	372.5088806152344	-426.5857238769531	404.7573547363281	350.4098815917969	-432.3017272949219	412.5279541015625	285.2519836425781	-424.0903930664062	429.6777648925781	394.6596069335938	-424.8480834960938	320.3996887207031	28.14819526672361	-335.2835388183594	555.284912109375	23.28625488281246	-377.7496643066406	505.9452209472656	23.19573211669919	-421.9250183105468	331.4956970214844	26.45778465270994	-179.5908508300781	561.9419555664062	22.26509284973141	-118.2008666992188	505.9693908691406	21.01365280151364	-76.25010681152341	-1841.704467773438	615.1724243164064	-1498.232666015625	-1909.33447265625	704.4976806640626	-1584.292602539062	nan	nan	nan	-1821.11181640625	658.2274169921876	-1628.158081054688	nan	nan	nan	-1802.681518554688	662.8465576171876	-1627.399536132812	nan	nan	nan	nan	nan	nan	nan	nan	nan	451.9918823242189	904.1917724609375	-140.1103515625	456.6186218261719	892.3480224609375	-375.7113952636719	416.6856689453125	461.2372436523438	-145.5259704589844	431.5051574707032	466.7581787109375	-244.2675628662109	432.4259948730469	458.5211181640625	-364.4519958496094	436.3847351074219	461.4532775878906	-264.5734252929688	416.6860046386719	461.2369995117188	-145.5260009765625	432.4259948730469	458.52099609375	-364.4519958496094	357.7924499511719	8.394879341125467	-221.8692626953125	337.5011291503906	18.5869674682617	-373.1894226074219	-1.481978058815002	-0.7359607219696044	0.892182171344757	0.4417215287685394	0.6214760541915894	-0.43069988489151	-0.1000000014901161	0.1000000014901161	-0.1000000014901161	-0.02918924763798722	-1.385968327522278	0.0003970539546571654	0.460543304681778	0.02487672865390775	-0.3783194124698638	-0.1000000014901161	0.1000000014901161	-0.1000000014901161	-1.399938702583313	-0.6353646516799926	1.074910759925842	0.3934399783611298	0.3360417187213898	-0.4276831150054932	-0.1000000014901161	0.1000000014901161	-0.1000000014901161	-2.506343364715576	-1.904023885726929	0.07367242127656921	0.3345876634120942	0.9913820624351501	-0.253723531961441	-0.1000000014901161	0.1000000014901161	-0.1000000014901161	0.2048408389091492	-2.237673044204712	-2.462346076965332	0.4041627645492555	0.594996452331543	-0.09435636550188062	-0.1000000014901161	0.1000000014901161	-0.1000000014901161	-2.469525337219238	-0.02822443470358834	1.882400631904602	0.4664690494537354	0.02324551157653329	-0.1246806159615517	-0.1000000014901161	0.1000000014901161	-0.1000000014901161	0.3363217413425449	2.316003561019897	-2.464189767837524	0.3880756199359894	0.3668640553951263	-0.09404948353767392	-0.1000000014901161	0.1000000014901161	-0.1000000014901161	
